<svg width="48" height="48" viewBox="0 0 48 48" fill="none" xmlns="http://www.w3.org/2000/svg">
<path d="M24 0C10.744 0 0 10.744 0 24C0 37.256 10.744 48 24 48C37.256 48 48 37.256 48 24C48 10.744 37.2754 0 24 0Z" fill="#5B22FF"/>
<path d="M44.058 23.0917L24.5411 11.8067C24.5411 11.8067 24.5218 11.8067 24.5218 11.7873C24.5024 11.768 24.4638 11.768 24.4445 11.7487C24.4251 11.7487 24.4058 11.7294 24.4058 11.7294C24.3865 11.71 24.3478 11.71 24.3285 11.71C24.3092 11.71 24.2899 11.6907 24.2899 11.6907C24.2705 11.6907 24.2319 11.6714 24.2126 11.6714C24.1933 11.6714 24.1932 11.6714 24.1739 11.6714C24.1353 11.6714 24.0966 11.6714 24.0387 11.6714C23.9807 11.6714 23.9614 11.6714 23.9034 11.6714C23.8841 11.6714 23.8841 11.6714 23.8647 11.6714C23.8261 11.6714 23.8068 11.6907 23.7875 11.6907C23.7681 11.6907 23.7488 11.6907 23.7488 11.71C23.7295 11.71 23.6908 11.7294 23.6715 11.7294C23.6522 11.7294 23.6329 11.7487 23.6329 11.7487C23.6135 11.768 23.5749 11.768 23.5556 11.7873C23.5556 11.7873 23.5362 11.7873 23.5362 11.8067L4.01933 23.0723C3.69083 23.2656 3.47827 23.6134 3.47827 23.9999C3.47827 24.3864 3.67151 24.7342 4.01933 24.9274L23.5362 36.1931C23.5362 36.1931 23.5556 36.1931 23.5556 36.2124C23.5749 36.2318 23.6135 36.2318 23.6329 36.2511C23.6522 36.2511 23.6715 36.2704 23.6715 36.2704C23.6908 36.2897 23.7295 36.2897 23.7488 36.2897C23.7681 36.2897 23.7875 36.2897 23.7875 36.3091C23.8261 36.3091 23.8454 36.3284 23.8841 36.3284C23.9034 36.3284 23.9034 36.3284 23.9227 36.3284C23.9614 36.3284 24 36.3284 24.058 36.3284C24.116 36.3284 24.1353 36.3284 24.1932 36.3284C24.2126 36.3284 24.2126 36.3284 24.2319 36.3284C24.2705 36.3284 24.2899 36.3091 24.3285 36.3091C24.3478 36.3091 24.3672 36.3091 24.3672 36.2897C24.3865 36.2897 24.4251 36.2704 24.4445 36.2704C24.4638 36.2704 24.4831 36.2511 24.4831 36.2511C24.5024 36.2318 24.5411 36.2318 24.5604 36.2124C24.5604 36.2124 24.5797 36.2124 24.5797 36.1931L44.058 24.9274C44.3865 24.7342 44.599 24.3864 44.599 23.9999C44.599 23.6134 44.3865 23.2849 44.058 23.0917ZM31.6715 23.9999L24 33.5651L16.3285 23.9999L24 14.4347L31.6715 23.9999ZM19.6522 16.483L14.1643 23.3429C13.8551 23.7294 13.8551 24.2897 14.1643 24.6762L19.6522 31.5361L6.60871 24.0192L19.6522 16.483ZM28.3672 31.5361L33.8551 24.6762C34.1643 24.2897 34.1643 23.7294 33.8551 23.3429L28.3672 16.483L41.4106 23.9999L28.3672 31.5361Z" fill="white"/>
</svg>
